<svg xmlns="http://www.w3.org/2000/svg" xmlns:xlink="http://www.w3.org/1999/xlink" width="6" height="6" viewBox="0 0 6 6" fill="none">
<path     fill="#000000"  d="M5.27706 1.03214C5.31114 1.00374 5.35897 1.02344 5.359 1.06799L5.36284 5.39948C5.36286 5.42712 5.34311 5.45199 5.31547 5.45197L0.991662 5.44941C0.947154 5.44937 0.923043 5.38944 0.957092 5.36106L5.27706 1.03214Z">
</path>
<path   fill="rgba(0, 0, 0, 1)"  d="M0.602608 5.00704L4.92372 0.679765L4.92372 0.679765C5.26999 0.33301 5.86263 0.578051 5.86291 1.06808L5.36291 1.06837L5.86291 1.06808L5.86537 5.39905L5.86537 5.39905C5.86555 5.70312 5.61896 5.94963 5.3149 5.94937L5.31533 5.44937L5.3149 5.94937L0.991323 5.94567L0.991323 5.94567C0.501741 5.94525 0.256668 5.35347 0.602608 5.00704L0.956413 5.36034L0.602608 5.00704ZM1.31022 5.71364L1.31022 5.71364C1.59326 5.4302 1.39275 4.94601 0.992178 4.94567L0.991751 5.44567L0.992178 4.94567L5.31576 4.94937L5.31576 4.94937C5.06698 4.94915 4.86523 5.15084 4.86537 5.39962L5.36537 5.39934L4.86537 5.39962L4.86291 1.06865L4.86291 1.06866C4.86314 1.46959 5.34803 1.67008 5.63133 1.38637L5.27753 1.03307L5.63133 1.38637L1.31022 5.71364Z">
</path>
</svg>
