<!-- <svg xmlns="http://www.w3.org/2000/svg" viewBox="0 0 512 512">
  <path d="M444.52 3.52L28.74 195.42c-47.97 22.39-31.98 92.75 19.19 92.75h175.91v175.91c0 51.17 70.36 67.17 92.75 19.19l191.9-415.78c15.99-38.39-25.59-79.97-63.97-63.97z" 
        fill="none" 
        stroke="currentColor" 
        stroke-width="32"
        transform="scale(-0.8 0.8) translate(-614.4 102.4)"/>
</svg> -->

<svg xmlns="http://www.w3.org/2000/svg" xmlns:xlink="http://www.w3.org/1999/xlink" width="20" height="20" viewBox="0 0 20 20" fill="none"><defs><rect id="path_0" x="0" y="0" width="20" height="20"></rect></defs><g opacity="1" transform="translate(0 0)  rotate(0 10 10)"><g><path id="矩形 2 (轮廓)" fill-rule="evenodd" fill="currentColor" transform="translate(3.0850519999999317 1.782070769230927)  rotate(0 7.315023999999999 8.48223)" opacity="1" d="M14.63 9.01L0 0L3.46 16.96L4.25 15.48L6.95 10.34L14.63 9.01ZM11.3 8.37L6.16 9.26L3.97 13.43L1.73 2.47L11.3 8.37Z"></path></g></g></svg>